<?xml version="1.0" encoding="utf-8"?>
<!-- Generator: Adobe Illustrator 24.1.0, SVG Export Plug-In . SVG Version: 6.00 Build 0)  -->
<svg version="1.1" xmlns="http://www.w3.org/2000/svg" xmlns:xlink="http://www.w3.org/1999/xlink" x="0px" y="0px"
	 viewBox="0 0 108 35" style="enable-background:new 0 0 108 35;" xml:space="preserve">
<style type="text/css">
	.st0{display:none;}
	.st1{display:inline;fill:#513333;}
	.st2{display:inline;}
	.st3{display:inline;clip-path:url(#SVGID_2_);}
	.st4{fill-rule:evenodd;clip-rule:evenodd;fill:#FFFFFF;}
	.st5{fill:#FFFFFF;}
	.st6{font-family:'MyriadPro-Semibold';}
	.st7{font-size:14.9596px;}
</style>
<g id="Layer_2" class="st0">
	<rect x="-18.3" y="-8.7" class="st1" width="133.4" height="58"/>
</g>
<g id="Layer_1">
	<g class="st0">
		<defs>
			<rect id="SVGID_1_" width="108" height="35"/>
		</defs>
		<clipPath id="SVGID_2_" class="st2">
			<use xlink:href="#SVGID_1_"  style="overflow:visible;"/>
		</clipPath>
		<g class="st3">
			<path class="st4" d="M46.9,12.3l4.5,11.4h-1.6l0,0c-0.2,0-0.3,0-0.5-0.1l0,0l0,0c-0.1-0.1-0.2-0.2-0.3-0.3l0,0l-0.8-2.3h-4.7
				l-0.8,2.3l0,0c0,0.1-0.1,0.2-0.2,0.3l0,0l0,0c-0.1,0.1-0.3,0.1-0.5,0.1l0,0h-1.6l4.5-11.4H46.9L46.9,12.3z M45.4,15.6l-1.4,3.8
				h3.6l-1.4-3.8l0,0c-0.1-0.2-0.1-0.4-0.2-0.6l0,0l0,0c-0.1-0.2-0.2-0.5-0.2-0.7l0,0l0,0c-0.1,0.3-0.1,0.5-0.2,0.7l0,0l0,0
				C45.6,15.2,45.5,15.4,45.4,15.6L45.4,15.6L45.4,15.6z M56,23.8L56,23.8L56,23.8c-0.7,0-1.2-0.2-1.6-0.6l0,0l0,0
				c-0.4-0.4-0.6-0.9-0.6-1.6l0,0V17H53l0,0c-0.1,0-0.2,0-0.3-0.1l0,0l0,0c-0.1-0.1-0.1-0.2-0.1-0.3l0,0v-0.8l1.3-0.2l0.4-2.2l0,0
				c0-0.1,0.1-0.2,0.1-0.2l0,0l0,0c0.1-0.1,0.2-0.1,0.3-0.1l0,0h1v2.5h2.1V17h-2.1v4.4l0,0c0,0.3,0.1,0.4,0.2,0.6l0,0l0,0
				c0.1,0.1,0.3,0.2,0.5,0.2l0,0l0,0c0.1,0,0.2,0,0.3,0l0,0l0,0c0.1,0,0.2-0.1,0.2-0.1l0,0l0,0c0.1,0,0.1-0.1,0.2-0.1l0,0l0,0
				c0,0,0.1,0,0.1,0l0,0l0,0c0.1,0,0.1,0,0.1,0l0,0l0,0c0,0,0.1,0.1,0.1,0.1l0,0l0.6,0.9l0,0c-0.3,0.2-0.6,0.4-1,0.5l0,0l0,0
				C56.8,23.7,56.4,23.8,56,23.8z M60.4,12h1.9v11.7h-1.9V12L60.4,12z M71.7,18.6v5.1h-0.9l0,0c-0.2,0-0.3,0-0.4-0.1l0,0l0,0
				c-0.1-0.1-0.2-0.2-0.2-0.3l0,0L70,22.7l0,0c-0.2,0.2-0.4,0.3-0.6,0.5l0,0l0,0c-0.2,0.1-0.4,0.3-0.6,0.3l0,0l0,0
				c-0.2,0.1-0.4,0.2-0.7,0.2l0,0l0,0c-0.2,0-0.5,0.1-0.8,0.1l0,0l0,0c-0.3,0-0.7,0-0.9-0.1l0,0l0,0c-0.3-0.1-0.5-0.2-0.7-0.4l0,0
				l0,0c-0.2-0.2-0.4-0.4-0.5-0.7l0,0l0,0c-0.1-0.3-0.2-0.6-0.2-1l0,0l0,0c0-0.3,0.1-0.6,0.2-0.9l0,0l0,0c0.2-0.3,0.4-0.6,0.8-0.8
				l0,0l0,0c0.4-0.2,0.9-0.4,1.5-0.6l0,0l0,0c0.6-0.2,1.4-0.2,2.3-0.2l0,0v-0.5l0,0c0-0.5-0.1-0.9-0.3-1.2l0,0l0,0
				c-0.2-0.3-0.6-0.4-1-0.4l0,0l0,0c-0.3,0-0.6,0-0.8,0.1l0,0l0,0c-0.2,0.1-0.4,0.2-0.5,0.2l0,0l0,0c-0.2,0.1-0.3,0.2-0.4,0.2l0,0
				l0,0c-0.1,0.1-0.3,0.1-0.4,0.1l0,0l0,0c-0.1,0-0.2,0-0.3-0.1l0,0l0,0c-0.1-0.1-0.2-0.2-0.2-0.3l0,0l-0.4-0.6l0,0
				c0.9-0.8,2-1.3,3.4-1.3l0,0l0,0c0.5,0,0.9,0.1,1.3,0.2l0,0l0,0c0.4,0.2,0.7,0.4,0.9,0.6l0,0l0,0c0.3,0.3,0.5,0.6,0.6,1l0,0l0,0
				C71.7,17.7,71.7,18.1,71.7,18.6L71.7,18.6L71.7,18.6z M68,22.4L68,22.4L68,22.4c0.2,0,0.4,0,0.6-0.1l0,0l0,0
				c0.2,0,0.3-0.1,0.5-0.2l0,0l0,0c0.1-0.1,0.3-0.2,0.4-0.3l0,0l0,0c0.1-0.1,0.3-0.2,0.4-0.4l0,0v-1.3l0,0c-0.6,0-1,0-1.4,0.1l0,0
				l0,0c-0.4,0.1-0.7,0.2-0.9,0.3l0,0l0,0c-0.2,0.1-0.4,0.2-0.5,0.4l0,0l0,0c-0.1,0.1-0.1,0.3-0.1,0.5l0,0l0,0
				c0,0.3,0.1,0.6,0.3,0.7l0,0l0,0C67.4,22.4,67.6,22.4,68,22.4z M76.5,23.6h-1.9v-8.1h1.2l0,0c0.3,0,0.4,0.1,0.5,0.4l0,0l0.1,0.6
				l0,0c0.2-0.2,0.3-0.3,0.5-0.5l0,0l0,0c0.2-0.1,0.4-0.3,0.6-0.4l0,0l0,0c0.2-0.1,0.4-0.2,0.6-0.2l0,0l0,0c0.2-0.1,0.5-0.1,0.8-0.1
				l0,0l0,0c0.4,0,0.8,0.1,1.2,0.2l0,0l0,0c0.3,0.1,0.6,0.4,0.9,0.6l0,0l0,0c0.2,0.3,0.4,0.6,0.5,1l0,0l0,0c0.1,0.4,0.2,0.8,0.2,1.2
				l0,0v5.1h-1.9v-5.1l0,0c0-0.5-0.1-0.9-0.3-1.1l0,0l0,0c-0.2-0.3-0.6-0.4-1-0.4l0,0l0,0c-0.3,0-0.6,0.1-0.9,0.2l0,0l0,0
				c-0.3,0.2-0.6,0.4-0.8,0.6l0,0V23.6L76.5,23.6z M87,23.8L87,23.8L87,23.8c-0.7,0-1.2-0.2-1.6-0.6l0,0l0,0
				c-0.4-0.4-0.6-0.9-0.6-1.6l0,0V17H84l0,0c-0.1,0-0.2,0-0.3-0.1l0,0l0,0c-0.1-0.1-0.1-0.2-0.1-0.3l0,0v-0.8l1.3-0.2l0.4-2.2l0,0
				c0-0.1,0.1-0.2,0.1-0.2l0,0l0,0c0.1-0.1,0.2-0.1,0.3-0.1l0,0h1v2.5h2.1V17h-2.1v4.4l0,0c0,0.3,0.1,0.4,0.2,0.6l0,0l0,0
				c0.1,0.1,0.3,0.2,0.5,0.2l0,0l0,0c0.1,0,0.2,0,0.3,0l0,0l0,0c0.1,0,0.2-0.1,0.2-0.1l0,0l0,0c0.1,0,0.1-0.1,0.2-0.1l0,0l0,0
				c0,0,0.1,0,0.1,0l0,0l0,0c0.1,0,0.1,0,0.1,0l0,0l0,0c0,0,0.1,0.1,0.1,0.1l0,0l0.6,0.9l0,0c-0.3,0.2-0.6,0.4-1,0.5l0,0l0,0
				C87.8,23.7,87.4,23.8,87,23.8z M91.4,15.6h1.9v8.1h-1.9V15.6L91.4,15.6z M93.6,13.2L93.6,13.2L93.6,13.2c0,0.2,0,0.3-0.1,0.5l0,0
				l0,0c-0.1,0.1-0.2,0.3-0.3,0.4l0,0l0,0c-0.1,0.1-0.2,0.2-0.4,0.3l0,0l0,0c-0.2,0.1-0.3,0.1-0.5,0.1l0,0l0,0c-0.2,0-0.3,0-0.5-0.1
				l0,0l0,0c-0.1-0.1-0.3-0.2-0.4-0.3l0,0l0,0c-0.1-0.1-0.2-0.2-0.3-0.4l0,0l0,0c-0.1-0.1-0.1-0.3-0.1-0.5l0,0l0,0
				c0-0.2,0-0.3,0.1-0.5l0,0l0,0c0.1-0.2,0.2-0.3,0.3-0.4l0,0l0,0c0.1-0.1,0.2-0.2,0.4-0.3l0,0l0,0c0.1-0.1,0.3-0.1,0.5-0.1l0,0l0,0
				c0.2,0,0.3,0,0.5,0.1l0,0l0,0c0.2,0.1,0.3,0.2,0.4,0.3l0,0l0,0c0.1,0.1,0.2,0.2,0.3,0.4l0,0l0,0C93.6,12.9,93.6,13.1,93.6,13.2z
				 M101.6,16.5l-0.4,0.7l0,0c-0.1,0.1-0.1,0.1-0.2,0.2l0,0l0,0c-0.1,0-0.1,0.1-0.2,0.1l0,0l0,0c-0.1,0-0.2,0-0.3-0.1l0,0l0,0
				c-0.1-0.1-0.2-0.1-0.4-0.2l0,0l0,0c-0.1-0.1-0.3-0.1-0.5-0.2l0,0l0,0c-0.2-0.1-0.4-0.1-0.6-0.1l0,0l0,0c-0.4,0-0.7,0.1-0.9,0.2
				l0,0l0,0c-0.2,0.2-0.3,0.4-0.3,0.6l0,0l0,0c0,0.2,0.1,0.3,0.2,0.4l0,0l0,0c0.1,0.1,0.3,0.2,0.4,0.3l0,0l0,0
				c0.2,0.1,0.4,0.2,0.6,0.2l0,0l0,0c0.2,0.1,0.5,0.1,0.7,0.2l0,0l0,0c0.2,0.1,0.5,0.2,0.7,0.3l0,0l0,0c0.2,0.1,0.4,0.2,0.6,0.4l0,0
				l0,0c0.2,0.2,0.3,0.4,0.4,0.6l0,0l0,0c0.1,0.2,0.2,0.5,0.2,0.8l0,0l0,0c0,0.4-0.1,0.7-0.2,1.1l0,0l0,0c-0.1,0.3-0.3,0.6-0.6,0.8
				l0,0l0,0c-0.3,0.2-0.6,0.4-1,0.6l0,0l0,0c-0.4,0.1-0.9,0.2-1.4,0.2l0,0l0,0c-0.3,0-0.5,0-0.8-0.1l0,0l0,0c-0.3,0-0.5-0.1-0.8-0.2
				l0,0l0,0c-0.2-0.1-0.5-0.2-0.7-0.3l0,0l0,0c-0.2-0.1-0.4-0.3-0.5-0.4l0,0l0.4-0.7l0,0c0.1-0.1,0.1-0.2,0.2-0.2l0,0l0,0
				c0.1,0,0.2-0.1,0.3-0.1l0,0l0,0c0.1,0,0.2,0,0.3,0.1l0,0l0,0c0.1,0.1,0.2,0.1,0.4,0.2l0,0l0,0c0.1,0.1,0.3,0.2,0.5,0.2l0,0l0,0
				c0.2,0.1,0.4,0.1,0.7,0.1l0,0l0,0c0.2,0,0.4,0,0.6-0.1l0,0l0,0c0.2-0.1,0.3-0.1,0.4-0.2l0,0l0,0c0.1-0.1,0.2-0.2,0.2-0.3l0,0l0,0
				c0-0.1,0.1-0.2,0.1-0.4l0,0l0,0c0-0.2-0.1-0.3-0.2-0.5l0,0l0,0c-0.1-0.1-0.3-0.2-0.4-0.3l0,0l0,0c-0.2-0.1-0.4-0.2-0.6-0.2l0,0
				l0,0c-0.2-0.1-0.5-0.1-0.7-0.2l0,0l0,0c-0.2-0.1-0.5-0.2-0.7-0.3l0,0l0,0c-0.2-0.1-0.4-0.3-0.6-0.4l0,0l0,0
				c-0.2-0.2-0.3-0.4-0.4-0.6l0,0l0,0c-0.1-0.3-0.2-0.6-0.2-0.9l0,0l0,0c0-0.3,0.1-0.6,0.2-0.9l0,0l0,0c0.1-0.3,0.3-0.6,0.6-0.8l0,0
				l0,0c0.3-0.2,0.6-0.4,0.9-0.5l0,0l0,0c0.4-0.1,0.8-0.2,1.3-0.2l0,0l0,0c0.6,0,1.1,0.1,1.5,0.3l0,0l0,0
				C101,15.9,101.3,16.2,101.6,16.5L101.6,16.5L101.6,16.5z"/>
			<g>
				<path class="st5" d="M29.9,9.2L15.4,0.9L1,9.2v16.7l4.8,2.8V12l9.6-5.6l9.6,5.6v16.7l4.8-2.8V9.2z"/>
				<path class="st5" d="M20.3,14.8L15.4,12l-4.8,2.8v5.6l4.8,2.8l4.8-2.8V14.8z"/>
				<path class="st5" d="M20.3,25.9l-4.8,2.8l-4.8-2.8v5.6l4.8,2.8l4.8-2.8V25.9z"/>
			</g>
		</g>
	</g>
	
		<image style="overflow:visible;" width="131" height="127" xlink:href="520BDB51.png"  transform="matrix(0.1983 0 0 0.1983 2.8511 5.9073)">
	</image>
	<text transform="matrix(1 0 0 1 34.0664 23.6143)" class="st5 st6 st7">LABOPAES</text>
</g>
</svg>
