<?xml version="1.0" encoding="utf-8"?>
<!-- Generator: Adobe Illustrator 25.2.1, SVG Export Plug-In . SVG Version: 6.00 Build 0)  -->
<svg version="1.1" id="Capa_1" xmlns="http://www.w3.org/2000/svg" xmlns:xlink="http://www.w3.org/1999/xlink" x="0px" y="0px"
	 viewBox="0 0 526.98 461.62" style="enable-background:new 0 0 526.98 461.62;" xml:space="preserve">
<style type="text/css">
	.st0{fill:#0C6DD7;}
	.st1{fill:#0F74B3;}
	.st2{fill:#14C3F1;}
	.st3{fill:#12C3F1;}
	.st4{fill:#0D6ED7;}
	.st5{fill:#E7E8EA;}
	.st6{fill:#F1F2F3;}
	.st7{fill:#1A1E25;}
	.st8{fill:#D6D7D9;}
	.st9{fill:#E8ECEE;}
	.st10{fill:#E1E2E5;}
	.st11{fill:#383838;}
	.st12{fill:#707274;}
	.st13{fill:#C9C9CA;}
	.st14{fill:#B1B1B1;}
	.st15{fill:#8B8B8A;}
	.st16{fill:#23436A;}
	.st17{fill:#094BAB;}
	.st18{fill:#D5E3DE;}
	.st19{fill:#180E91;}
	.st20{fill:#D6DDE4;}
	.st21{fill:#D2D7E1;}
	.st22{fill:#C9D9D8;}
	.st23{fill:#C8CDDB;}
	.st24{fill:#E8E8E9;}
	.st25{fill:#BBBBBC;}
	.st26{fill:#1132A0;}
	.st27{fill:#27B314;}
	.st28{fill:#41EA13;}
	.st29{fill:#1E9B20;}
	.st30{fill:#1C7C32;}
	.st31{fill:#37BC2F;}
	.st32{fill:#171395;}
	.st33{fill:#081EA2;}
	.st34{fill:#198132;}
	.st35{fill:#0465BF;}
	.st36{fill:#0C6097;}
	.st37{fill:#0729A5;}
	.st38{fill:#064AB0;}
	.st39{fill:#0463BD;}
	.st40{fill:#047DC6;}
	.st41{fill:#0746AC;}
	.st42{fill:#0C6A94;}
	.st43{fill:#28C215;}
	.st44{fill:#2FD20A;}
	.st45{fill:#0382CD;}
	.st46{fill:#41EF0C;}
	.st47{fill:#53F91A;}
	.st48{fill:#0298D6;}
</style>
<g>
	<path class="st0" d="M167.17,378.58c4.81,14.25,15.98,18.95,29.69,19.16c18.26,0.28,36.53,0.06,54.79,0.15
		c4.93,0.02,10.1-0.73,14.51,2.29c4.63,3.18,9.83,6.98,7.97,13.17c-1.65,5.5-7.63,2.91-11.64,2.92
		c-54.79,0.16-109.59-0.3-164.38,0.37c-14.5,0.18-14.96-5.47-12.19-16.98c3.56-14.79,14.81-25.91,17.93-40.7
		c0.13-0.74,0.26-1.48,0.38-2.22c3.48-9.68,11.2-17.68,11.33-28.69c0.3-1.53,1.09-2.76,2.3-3.72c3.98,1.92,6.83,1.09,9.76-2.55
		c10.28-12.75,23.2-11.61,36.7-6.18c5.67,13.78,0.11,27.94,1.42,41.88C166.41,364.5,164.16,371.72,167.17,378.58z"/>
	<path class="st1" d="M397.03,100.08c0.03,0.02,0.06,0.04,0.09,0.06c0-0.01,0-0.02,0-0.02C397.09,100.1,397.07,100.09,397.03,100.08
		z M397.03,100.08c0.03,0.02,0.06,0.04,0.09,0.06c0-0.01,0-0.02,0-0.02C397.09,100.1,397.07,100.09,397.03,100.08z M397.03,100.08
		c0.03,0.02,0.06,0.04,0.09,0.06c0-0.01,0-0.02,0-0.02C397.09,100.1,397.07,100.09,397.03,100.08z M316.91,156.07
		c-3.3-0.03-6.6-0.05-9.89-0.08c1.84,0.99,3.29,2.24,4.45,3.72c2.07-0.68,4.09-1.47,5.65-3.08
		C317.04,156.45,316.98,156.26,316.91,156.07z M397.03,100.08c0.03,0.02,0.06,0.04,0.09,0.06c0-0.01,0-0.02,0-0.02
		C397.09,100.1,397.07,100.09,397.03,100.08z M397.03,100.08c0.03,0.02,0.06,0.04,0.09,0.06c0-0.01,0-0.02,0-0.02
		C397.09,100.1,397.07,100.09,397.03,100.08z M397.03,100.08c0.03,0.02,0.06,0.04,0.09,0.06c0-0.01,0-0.02,0-0.02
		C397.09,100.1,397.07,100.09,397.03,100.08z M316.91,156.07c-3.3-0.03-6.6-0.05-9.89-0.08c1.84,0.99,3.29,2.24,4.45,3.72
		c2.07-0.68,4.09-1.47,5.65-3.08C317.04,156.45,316.98,156.26,316.91,156.07z M397.03,100.08c0.03,0.02,0.06,0.04,0.09,0.06
		c0-0.01,0-0.02,0-0.02C397.09,100.1,397.07,100.09,397.03,100.08z M397.03,100.08c0.03,0.02,0.06,0.04,0.09,0.06
		c0-0.01,0-0.02,0-0.02C397.09,100.1,397.07,100.09,397.03,100.08z M316.91,156.07c-3.3-0.03-6.6-0.05-9.89-0.08
		c1.84,0.99,3.29,2.24,4.45,3.72c2.07-0.68,4.09-1.47,5.65-3.08C317.04,156.45,316.98,156.26,316.91,156.07z M397.03,100.08
		c0.03,0.02,0.06,0.04,0.09,0.06c0-0.01,0-0.02,0-0.02C397.09,100.1,397.07,100.09,397.03,100.08z M397.03,100.08
		c0.03,0.02,0.06,0.04,0.09,0.06c0-0.01,0-0.02,0-0.02C397.09,100.1,397.07,100.09,397.03,100.08z M316.91,156.07
		c-3.3-0.03-6.6-0.05-9.89-0.08c1.84,0.99,3.29,2.24,4.45,3.72c2.07-0.68,4.09-1.47,5.65-3.08
		C317.04,156.45,316.98,156.26,316.91,156.07z M397.03,100.08c0.03,0.02,0.06,0.04,0.09,0.06c0-0.01,0-0.02,0-0.02
		C397.09,100.1,397.07,100.09,397.03,100.08z M397.03,100.08c0.03,0.02,0.06,0.04,0.09,0.06c0-0.01,0-0.02,0-0.02
		C397.09,100.1,397.07,100.09,397.03,100.08z M316.91,156.07c-3.3-0.03-6.6-0.05-9.89-0.08c1.84,0.99,3.29,2.24,4.45,3.72
		c2.07-0.68,4.09-1.47,5.65-3.08C317.04,156.45,316.98,156.26,316.91,156.07z M468.84,150.85c-2.8-4.29-3.2-9.34-4.5-14.12
		c-6.51-23.97-20.72-43.23-40.45-57.2c-44.28-31.35-111.71-17.74-139.32,26.89c-32.8,53.02-17.64,114.66,34.18,143.88
		c13.54,7.64,28.1,8.45,42.17,12.45h0c0,0,0,0,0.01,0C426.04,270.92,477.85,209.02,468.84,150.85z M287.47,188.35
		c-1.34-11.74-5.18-23.34-2.05-35.34c0.89-9.53,2.32-18.89,7.86-27.07c0.47-5.65,4.57-9.07,7.94-12.94
		c4.29-7.96,10.34-14.03,18.79-17.54c-0.2,1.3,0.06,2.41,0.57,3.43c1.69,3.42,6.16,5.72,4.96,10.31c0,0,0,0,0,0.01
		c-0.04,0.12-0.07,0.23-0.11,0.35c-0.68,2.2-1.38,4.4-2.07,6.6c-0.06,0.26-0.11,0.51-0.15,0.75c0.06-0.01,0.13-0.02,0.2-0.03
		c0.11-0.08,0.21-0.17,0.32-0.25c1.6,2.02,3.2,4.04,4.8,6.06c-0.09,0.71-0.17,1.43-0.24,2.15c-0.77,8.26-0.14,16.77-4.67,24.35
		c-1.98,1.34-3.96,2.68-5.94,4.01c-0.1,0.07-0.19,0.13-0.29,0.2c-0.07,0.91-0.23,1.81-0.48,2.68c-3.3-0.03-6.6-0.05-9.89-0.08
		c-10.46,3.17-6.28,13.24-9.38,19.88l0,0c1.16,6.72,2.32,13.43,3.48,20.15c-0.39,0.95-0.7,1.93-0.93,2.93
		c0.05,0.22,0.09,0.42,0.12,0.63c0.29,1.8-0.16,3.18-1.22,4.22c-0.62,0.61-1.45,1.1-2.48,1.48c-2.62-4.86-5.25-9.73-7.87-14.59
		C288.31,189.91,287.89,189.13,287.47,188.35z M420.44,97.99c6.84,6.5,13.7,12.98,17.26,22.08c-0.07-0.01-0.15-0.02-0.23-0.03
		c0.09,0.06,0.19,0.11,0.28,0.17c-0.4,5.1-0.81,10.2-1.22,15.29v0c0,0,0,0-0.01,0.01c-1.04,1.3-2.1,2.6-3.14,3.9
		c-0.01,0.01-0.02,0.02-0.03,0.03c-4.48,0.23-7.85,2.23-9.96,6.23c-4.94-2.44-4.44-7.51-1.24-8.99c12.24-5.63,6.96-11.11,0.84-17.07
		c-0.62,0.01-1.24,0.02-1.86,0.03c-2.08,0.03-4.15,0.06-6.23,0.09c-0.52,0.01-1.04,0.01-1.56,0.02
		c-5.46-5.64-10.91-11.27-16.37-16.91v0c-0.06-1.43-0.53-2.43-1.24-3.22c0.44,0.15,0.87,0.29,1.3,0.45
		c-0.11-0.06-0.22-0.13-0.33-0.2c-0.33-0.09-0.66-0.18-0.99-0.27c-1.42-1.58-3.78-2.24-5.48-3.55c-1.63-2.47-5.94-0.7-8.25-2.1
		c-0.98-0.59-1.6-1.76-1.5-4.05c0.66-1.14,1.33-2.27,2-3.4c0.63-1.08,1.27-2.16,1.9-3.24h0c13.96-1.65,23.2,8.86,34.74,13.46
		C419.56,97.15,420,97.57,420.44,97.99z M396.84,233.9c-0.39-0.38-0.78-0.75-1.16-1.13c-1.16-1.12-2.32-2.25-3.48-3.37
		c0,0,0,0,0.01,0c-0.15-0.35-0.3-0.69-0.45-1.04c-0.76-1.76-1.53-3.52-2.29-5.27v0h0c0-0.01-0.01-0.03-0.02-0.04
		c0,0.01,0,0.02,0,0.03c-4.04-1.36-8.08-2.72-12.12-4.08c-0.56-0.89-1.12-1.78-1.68-2.67c-1.5-2.4-3-4.79-4.51-7.19
		c-0.45-0.58-0.89-1.17-1.34-1.75c-1.15-1.51-2.31-3.02-3.46-4.53c-2.01-1.24-4.02-2.48-6.04-3.73c-0.02-1.05-0.05-2.1-0.07-3.15
		c-0.03-1.14-0.05-2.29-0.08-3.43c-0.92-1.15-1.85-2.31-2.77-3.47c-0.61-0.99-1.22-1.98-1.83-2.97c-0.76-1.24-1.53-2.47-2.29-3.71
		c-0.2-2.27-0.09-4.36,0.46-6.21c0.88-2.98,2.9-5.35,6.62-6.83c12.92-5.15,21.85-15.4,31.62-24.56c0.67-0.62,1.34-1.24,2.01-1.85
		c5.23,1.74,11.74-2.52,16.08,3.42c-0.18,0.35-0.37,0.71-0.55,1.07c0.15-0.01,0.3-0.03,0.45-0.05c0.17-0.02,0.34-0.05,0.52-0.08
		c0.81-0.16,1.59-0.45,2.33-0.88h0c1.33,2.78,0.46,6.16,1.03,9.15c0.3,1.58,1.01,3.05,2.67,4.25c3.07,14.84-4.1,25.86-13.47,36.06
		c-0.03,4.22-0.06,8.44-0.09,12.67c0,0.2,0,0.39,0,0.59v0.2c0,0,1.22-0.13,1.35-0.15c0,0,0,0,0.01,0
		c-0.11,3.49-0.21,6.98-0.32,10.48c-0.03,0.93-0.06,1.86-0.09,2.79C402.82,227.06,400.77,231.05,396.84,233.9z M397.12,100.11
		c-0.03-0.01-0.06-0.02-0.09-0.03c0.03,0.02,0.06,0.04,0.09,0.06C397.13,100.13,397.12,100.12,397.12,100.11z M316.91,156.07
		c-3.3-0.03-6.6-0.05-9.89-0.08c1.84,0.99,3.29,2.24,4.45,3.72c2.07-0.68,4.09-1.47,5.65-3.08
		C317.04,156.45,316.98,156.26,316.91,156.07z M397.03,100.08c0.03,0.02,0.06,0.04,0.09,0.06c0-0.01,0-0.02,0-0.02
		C397.09,100.1,397.07,100.09,397.03,100.08z M397.03,100.08c0.03,0.02,0.06,0.04,0.09,0.06c0-0.01,0-0.02,0-0.02
		C397.09,100.1,397.07,100.09,397.03,100.08z M316.91,156.07c-3.3-0.03-6.6-0.05-9.89-0.08c1.84,0.99,3.29,2.24,4.45,3.72
		c2.07-0.68,4.09-1.47,5.65-3.08C317.04,156.45,316.98,156.26,316.91,156.07z M397.03,100.08c0.03,0.02,0.06,0.04,0.09,0.06
		c0-0.01,0-0.02,0-0.02C397.09,100.1,397.07,100.09,397.03,100.08z M397.03,100.08c0.03,0.02,0.06,0.04,0.09,0.06
		c0-0.01,0-0.02,0-0.02C397.09,100.1,397.07,100.09,397.03,100.08z M316.91,156.07c-3.3-0.03-6.6-0.05-9.89-0.08
		c1.84,0.99,3.29,2.24,4.45,3.72c2.07-0.68,4.09-1.47,5.65-3.08C317.04,156.45,316.98,156.26,316.91,156.07z M397.03,100.08
		c0.03,0.02,0.06,0.04,0.09,0.06c0-0.01,0-0.02,0-0.02C397.09,100.1,397.07,100.09,397.03,100.08z M397.03,100.08
		c0.03,0.02,0.06,0.04,0.09,0.06c0-0.01,0-0.02,0-0.02C397.09,100.1,397.07,100.09,397.03,100.08z M316.91,156.07
		c-3.3-0.03-6.6-0.05-9.89-0.08c1.84,0.99,3.29,2.24,4.45,3.72c2.07-0.68,4.09-1.47,5.65-3.08
		C317.04,156.45,316.98,156.26,316.91,156.07z M397.03,100.08c0.03,0.02,0.06,0.04,0.09,0.06c0-0.01,0-0.02,0-0.02
		C397.09,100.1,397.07,100.09,397.03,100.08z M397.03,100.08c0.03,0.02,0.06,0.04,0.09,0.06c0-0.01,0-0.02,0-0.02
		C397.09,100.1,397.07,100.09,397.03,100.08z M397.03,100.08c0.03,0.02,0.06,0.04,0.09,0.06c0-0.01,0-0.02,0-0.02
		C397.09,100.1,397.07,100.09,397.03,100.08z M397.03,100.08c0.03,0.02,0.06,0.04,0.09,0.06c0-0.01,0-0.02,0-0.02
		C397.09,100.1,397.07,100.09,397.03,100.08z M397.03,100.08c0.03,0.02,0.06,0.04,0.09,0.06c0-0.01,0-0.02,0-0.02
		C397.09,100.1,397.07,100.09,397.03,100.08z M397.03,100.08c0.03,0.02,0.06,0.04,0.09,0.06c0-0.01,0-0.02,0-0.02
		C397.09,100.1,397.07,100.09,397.03,100.08z"/>
	<path class="st0" d="M117.87,324.33c-0.13,1.43-0.27,2.87-0.4,4.3c-1.36,10.99-9.28,19.13-12.73,29.21c0,0-0.87,1.12-0.87,1.12
		c-51.76-44.14-53.59-112.08-4.22-156.25c6.27,10.09,10.32,21.51,18.31,30.57C93.95,267.52,93.94,289.37,117.87,324.33z"/>
	<path class="st2" d="M468.83,150.85c-6.73,0.99-4.71-4.2-5.42-7.57c-8.59-40.46-43.16-73.22-81.31-77.1
		c-50.21-5.11-86.45,16.04-105.84,61.77c-15.44,36.42-3.48,82.55,28.01,109.96c16.39,14.27,37.01,18.29,56.65,24.84
		c-14.93,2.56-28.36-2.61-41.09-9.15c-7.19-3.69-12.66-4.46-19.4,0.67c-26.65,20.25-53.6,40.12-80.43,60.14
		c-1.39,3.33-3.44,2.78-5.7,0.97c19.53-27.27,38.62-54.89,58.85-81.63c6.97-9.22,7.63-15.81,2.12-26.31
		c-18.88-36-12.54-80.61,14.18-111.39c26.91-31,69.83-44.01,106.35-32.24C436.93,77.05,465.63,111.26,468.83,150.85z"/>
	<path class="st3" d="M177.88,143c7.55-0.45,10.21,4.88,12.77,10.56c9.9,21.89,19.36,44,30.08,65.48
		c5.06,10.13,1.05,15.06-6.93,19.57c-8.24,5.47-15.91,12.27-26.85,11.42c-8.12-5.25-9.77-14.56-12.99-22.45
		c-9.13-22.35-22.99-42.74-28.02-66.79c0.4-2.57,1.77-4.57,3.64-6.28C158.34,149.04,167.36,144.16,177.88,143z"/>
	<path class="st4" d="M147.29,159.48c13.33,29.71,26.67,59.42,40,89.14c-9.58,15.32-24.2,16.06-39.88,13.74
		c-4.5-10.63-9-21.25-13.49-31.88c14.97-34.47,11.48-35.16-20.98-45.16c-2.35-4.5-2.52-8.79,1.26-12.69
		C124.36,166.06,132.71,154.95,147.29,159.48z"/>
	<path class="st5" d="M147.29,159.48c-11.03,4.38-22.06,8.77-33.09,13.15c5.24-11.32,4.79-22.52-1.69-33.08
		c-7.97-12.99-9.08-29.66-21.64-40.15c6.13-7.12,14.15-10.58,23.23-12c1.6,0.23,3.08,0.81,4.39,1.77
		c11.14,16.1,12.72,37.64,29.53,50.77c4.34,3.39,2.3,10.41,2.27,15.88C149.29,157.04,148.29,158.26,147.29,159.48z"/>
	<path class="st6" d="M150.3,155.81c-11.33-21.91-28.88-40.74-32.82-66.3c2.55-11,9.98-12.89,19.69-10.52
		c9.77,23.75,15.09,50.32,40.71,64.01C169.46,148.94,160.21,153.1,150.3,155.81z"/>
	<path class="st7" d="M112.94,185.32c13.22-2.19,25.44-0.75,31.76,12.83c6.33,13.59,0.59,24.13-10.78,32.33
		c-5.32,0.94-10.64,1.88-15.97,2.81c-13.71-5.65-19.85-15.81-18.31-30.57C104.07,196.92,108.5,191.12,112.94,185.32z"/>
	<path class="st8" d="M167.17,378.58c-6.5-20.74-1.01-42.03-2.84-62.98c2.7,1.26,2.94,3.77,3.22,6.27
		c20.55,4.03,41.32,1.22,61.97,2.07c4.24,0.18,11.61-2.89,11.65,4.77c0.04,7.7-7.33,4.54-11.59,4.85
		c-20.63,1.51-41.46-2.44-62.01,2.08c-1.67,10.26,2.81,13.61,12.93,13.23c17.08-0.65,34.2-0.18,51.29,2.16
		c-13.01,6.4-26.56,4.03-39.82,4.21C167.72,355.57,167.72,355.31,167.17,378.58z"/>
	<path class="st9" d="M147.41,262.36c15.31,1.28,27.18-7.42,39.88-13.74c9.21-2.35,16.63-9.43,26.51-10.02
		c-0.49,8.27-13.64,13.07-6.42,23.45c-3.64,5.59-11.68,4.65-15.24,10.34c-1.41,2.41-2.46,5.1-5.06,6.57
		c-4.72-9.86-14.58-9.26-23.11-11.96C158.48,265.27,151.59,268.4,147.41,262.36z"/>
	<path class="st10" d="M167.58,335.65c10.4-7.46,22.16-2.66,33.25-3.42c12.38-0.85,24.86-0.2,41.2-0.2
		c-9.9-9.53-17.99-5.54-25.29-5.94c-16.44-0.9-33.25,2.5-49.19-4.21c15.6-2.06,32.65,6.31,46.74-6.5c1.9-0.32,3.81-0.64,5.71-0.97
		c0.8,2.58-8.45,8.16,2.42,7.8c7.12-0.24,14.26-0.14,21.38,0.1c4.72,0.16,9.11,1.87,9.13,7.35c0.03,6.63-5.56,5.59-9.69,5.62
		C218.02,335.49,192.8,335.54,167.58,335.65z"/>
	<path class="st11" d="M113.98,89.16c-7.7,3.41-15.4,6.82-23.1,10.23c-2.67-10.45-2.67-10.45,16.73-19.78
		C118.46,76.98,116.72,82.73,113.98,89.16z"/>
	<path class="st12" d="M113.98,89.16c0.88-5.18-0.81-8.65-6.37-9.55c6.4-2.93,12.79-5.88,19.21-8.77c8.66-3.91,10.8,0.5,10.35,8.15
		c-6.72,3.21-14.16,5.08-19.69,10.52C116.31,89.39,115.14,89.28,113.98,89.16z"/>
	<path class="st13" d="M210.61,275.58c6.6,2.91,6.46,7.26,0.87,10.29c-7.34,3.98-15.69,8.29-21.11-3.19
		c1.06-4.66,4.82-6.31,8.71-7.82C203.01,273.74,206.97,272.22,210.61,275.58z"/>
	<path class="st14" d="M210.61,275.58c-3.44,1.02-6.87,2.03-10.31,3.05c-3.7-3.86-9.11-5.44-12.66-9.49
		c5.41-5.62,12.56-6.39,19.74-7.09C209.59,266.28,211.39,270.62,210.61,275.58z"/>
	<path class="st15" d="M187.64,269.14c7.23-0.84,12.54,0.87,12.66,9.49c-3.31,1.35-6.62,2.7-9.93,4.05c-1.1-1.24-2.2-2.48-3.3-3.73
		C187.27,275.68,187.45,272.41,187.64,269.14z"/>
	<path class="st16" d="M157.92,329.75c-1.53,7.06-5.4,12.47-13.21,11.56c-7.47-0.87-11.54-6.37-10.66-13.99
		c0.77-6.71,5.14-11.37,12.07-10.99C153.76,316.75,157.47,322.01,157.92,329.75z"/>
	<path class="st17" d="M104.74,357.84c-1-12.01,7.57-19.87,12.73-29.21C120.61,341.59,112.26,349.54,104.74,357.84z"/>
	<path class="st18" d="M420.44,97.99c-0.44-0.42-0.88-0.84-1.32-1.26c-11.54-4.59-20.77-15.11-34.74-13.46h0
		c-0.63,1.08-1.27,2.16-1.9,3.24c-10.21,1.51-20.33,2.63-30.79,0.8c-11.16-1.96-19.81,5.13-28.77,10.38
		c-0.8,0.38-1.58,0.77-2.34,1.19c-0.51-1.02-0.77-2.13-0.57-3.43c-8.45,3.51-14.5,9.58-18.79,17.54c-3.37,3.87-7.47,7.29-7.94,12.94
		c-5.53,8.18-6.96,17.55-7.86,27.07c-3.13,12,0.71,23.6,2.05,35.34c0.42,0.78,0.84,1.56,1.26,2.34c-1.18,1.65-2.72,2.65-5.26,1.87
		c-13.97-39.35-1.54-78.88,32.6-103.65c31.99-23.22,74.73-21.54,107.28,4.22C423.87,95.83,422.47,97.14,420.44,97.99z"/>
	<path class="st19" d="M440.87,208.09c-0.9,1.43-1.82,2.85-2.78,4.22c-0.56,0.81-1.14,1.62-1.72,2.41
		c-6.32,8.53-13.92,15.74-23.41,20.99c-0.51,0.28-1.02,0.56-1.53,0.82c-0.12,0.06-0.25,0.12-0.38,0.19
		c-3.44,1.72-6.77,3.81-10.91,3.35c-1.01-0.57-1.87-1.23-2.55-1.98c-0.26-0.29-0.49-0.58-0.7-0.89c-0.83-1.24-1.26-2.71-1.22-4.44
		c0.39,0.38,0.78,0.75,1.16,1.13c3.93-2.85,5.99-6.84,7.05-11.45c0.03-0.93,0.06-1.86,0.09-2.79
		c29.46-19.69,35.62-47.27,29.66-78.95v0c-0.08-0.43-0.16-0.85-0.25-1.29c1.05-1.3,2.1-2.6,3.14-3.9c0,0,0,0,0.01-0.01v0
		c0.41-5.09,0.82-10.19,1.22-15.29c-0.09-0.05-0.19-0.11-0.28-0.17c0.07,0.01,0.15,0.02,0.23,0.03c12.49,1.96,8.86,15.23,13.9,22.42
		c0,0,0,0,0,0.01c0.01,0.06,0.03,0.13,0.04,0.19C456.33,165.86,453.65,187.81,440.87,208.09z"/>
	<path class="st20" d="M413.33,238.61c-48.46,31.29-112.11,8.72-129.86-46.05c1.33-1.41,2.66-2.81,3.99-4.21
		c0.42,0.78,0.84,1.56,1.26,2.34c2.62,4.86,5.25,9.73,7.87,14.59c1.03-0.38,1.86-0.87,2.48-1.48c0.31,0.48,0.66,0.94,1.04,1.37
		c0.02,0.03,0.05,0.06,0.07,0.09c18.96,27.8,45.67,37.47,78.26,33.49c6.12-0.74,12.27-1.29,18.44-1.54c0.94-0.04,1.88-0.07,2.83-0.1
		c3.14-0.66,6.27-1.31,9.41-1.96c2.29-1.03,3.36-0.59,3.83,0.57C413.27,236.46,413.34,237.49,413.33,238.61z"/>
	<path class="st21" d="M436.85,209.44c14.32-20.24,12.59-44.01,14.75-66.93c11.32,15.89,5.08,32.45,1.25,48.61
		c-2.15,9.08-6.53,17.58-13.36,24.43C434.79,215.16,434.24,212.98,436.85,209.44z"/>
	<path class="st22" d="M451.82,142.81C451.81,142.81,451.81,142.8,451.82,142.81c-0.06-0.04-0.12-0.07-0.17-0.1
		c-0.02-0.01-0.04-0.02-0.06-0.03c-8.64-4.98-6.71-16.53-13.83-22.46c0,0,0,0,0,0c-0.09-0.05-0.19-0.11-0.28-0.17
		c0.07,0.01,0.15,0.02,0.23,0.03c-3.55-9.11-10.42-15.59-17.26-22.08c-0.44-0.42-0.88-0.84-1.32-1.26c1.41-1.2,2.81-2.4,4.22-3.61
		C438.86,106.24,453.57,119.82,451.82,142.81z"/>
	<path class="st23" d="M436.85,209.44c0.88,2.03,1.76,4.07,2.64,6.1c-6.6,10.08-13.74,19.57-26.16,23.07
		c-1.4-1.15-2.8-2.3-4.21-3.46C419.47,227.76,428.71,219.19,436.85,209.44z"/>
	<path class="st24" d="M138.13,209.74c-1.27,8.41-6.77,13.52-15.66,12.86c-8.14-0.61-12.96-5.92-12.55-14.61
		c0.4-8.52,5.04-13.57,13.6-13.42C132.51,194.72,137.89,199.54,138.13,209.74z"/>
	<path class="st25" d="M151.13,328.29c0.19,3.76-1.7,6.33-5.32,6.49c-2.78,0.12-4.9-2.04-5.2-4.99c-0.39-3.81,1.93-6.19,5.39-6.48
		C148.9,323.06,150.67,325.3,151.13,328.29z"/>
	<path class="st26" d="M384.39,83.28L384.39,83.28c-0.64,1.08-1.27,2.16-1.91,3.24c-0.67,1.13-1.33,2.26-2,3.4
		c-0.1,2.29,0.52,3.46,1.5,4.05c-0.56,0.9-1.09,1.83-1.65,2.74c-0.32,0.52-0.66,1.04-1.02,1.54c-0.33,0.45-0.67,0.88-1.05,1.3
		c-0.81,0.9-1.77,1.68-2.96,2.27c-16.34,1.26-32.09,5.63-48.04,9.05c-0.51-0.36-1.02-0.72-1.53-1.08c-0.11-0.08-0.21-0.15-0.32-0.23
		c0.04-0.12,0.08-0.23,0.11-0.35c0,0,0,0,0-0.01c1.2-4.58-3.27-6.89-4.96-10.31c-0.51-1.02-0.77-2.13-0.57-3.43
		c13.35-11.18,28.52-16.62,45.26-10.19C372.88,88.19,377.38,75.9,384.39,83.28z"/>
	<path class="st27" d="M317.81,155.82c-0.11,0.14-0.22,0.28-0.33,0.41c-0.11,0.14-0.24,0.28-0.37,0.41
		c-1.56,1.61-3.58,2.4-5.65,3.08c-0.54,0.18-1.09,0.35-1.63,0.53c-0.48,0.2-0.92,0.41-1.34,0.64c-5.54,3.03-5.77,8.56-6.29,13.95
		c-0.07,0.73-0.15,1.45-0.24,2.17c0,0.01,0,0.02,0,0.03c0.88,6.33,3.3,12.57,1.1,19.07c-0.01,0.04-0.03,0.09-0.04,0.13
		c-0.21,0.51-0.46,0.97-0.74,1.41c-0.49,0.72-1.09,1.33-1.81,1.84c-0.05,0.04-0.1,0.07-0.15,0.11c-0.03-0.2-0.07-0.41-0.12-0.63
		c0.23-1,0.54-1.98,0.93-2.93c-1.16-6.72-2.32-13.43-3.48-20.15l0,0c3.1-6.64-1.08-16.71,9.38-19.88c3.3,0.03,6.6,0.05,9.89,0.08
		c0.25-0.88,0.41-1.77,0.48-2.68c0.1-0.06,0.19-0.13,0.29-0.2c0.03,0.08,0.06,0.17,0.08,0.25
		C317.96,154.19,317.97,154.98,317.81,155.82z"/>
	<path class="st28" d="M437.76,120.21c-0.4,5.1-0.81,10.2-1.22,15.29v0c0,0,0,0-0.01,0.01c-1.04,1.3-2.1,2.6-3.14,3.9
		c-0.01,0.01-0.02,0.02-0.03,0.03c-4.48,0.23-7.85,2.23-9.96,6.23c-4.94-2.44-4.44-7.51-1.24-8.99c12.24-5.63,6.96-11.11,0.84-17.07
		c-0.62,0.01-1.24,0.02-1.86,0.03c-2.08,0.03-4.15,0.06-6.23,0.09c-0.52,0.01-1.04,0.01-1.56,0.02
		c-5.46-5.64-10.91-11.27-16.37-16.91v0c-0.06-1.43-0.53-2.43-1.24-3.22c0.44,0.15,0.87,0.29,1.3,0.45
		c0.03,0.02,0.06,0.04,0.09,0.06c0-0.01,0-0.02,0-0.02c-0.03-0.01-0.06-0.02-0.09-0.03c-0.11-0.06-0.22-0.13-0.33-0.2
		c-0.33-0.09-0.66-0.18-0.99-0.27c-1.42-1.58-3.78-2.24-5.48-3.55c-1.63-2.47-5.94-0.7-8.25-2.1c-0.98-0.59-1.6-1.76-1.5-4.05
		c0.66-1.14,1.33-2.27,2-3.4c0.63-1.08,1.27-2.16,1.9-3.24h0c13.96-1.65,23.2,8.86,34.74,13.46c0.44,0.42,0.88,0.84,1.32,1.26
		c6.84,6.5,13.7,12.98,17.26,22.08c-0.07-0.01-0.15-0.02-0.23-0.03C437.57,120.11,437.66,120.16,437.76,120.21z"/>
	<path class="st29" d="M397.03,100.08c-0.43-0.16-0.86-0.3-1.3-0.45c-0.06-0.02-0.13-0.05-0.2-0.06c-1.64-0.55-3.32-1.04-5.02-1.51
		c-0.91-0.52-2.2-0.57-3.57-0.52c-1.65,0.06-3.42,0.27-4.82,0.01c0,0,0,0,0,0c-0.71-0.13-1.33-0.38-1.78-0.84
		c-0.98-0.99-1.18-2.97,0.14-6.79l0,0c-0.1,2.29,0.52,3.46,1.5,4.05c2.31,1.4,6.62-0.37,8.25,2.1c1.7,1.31,4.06,1.97,5.48,3.55
		c0.33,0.09,0.66,0.18,0.99,0.27C396.81,99.95,396.92,100.02,397.03,100.08z"/>
	<path class="st29" d="M436.52,135.52c-0.95,1.73-1.69,3.59-2.9,5.19v0c-0.11,0.14-0.22,0.29-0.34,0.42
		c-0.03,0.02-0.06,0.05-0.1,0.07c-1.57,1.23-3.11,2.52-4.77,3.57c-1.65,1.05-3.44,1.85-5.51,2.07c-0.38,0.04-0.76,0.06-1.16,0.06
		c-0.15-0.09-0.29-0.17-0.42-0.27c-5.02-3.26-4.72-7.95-1.26-11.64c4.56-4.85,3.18-9.46,1.48-14.49c-0.14-0.29-0.28-0.57-0.42-0.86
		c0.62-0.01,1.24-0.02,1.86-0.03c6.13,5.96,11.41,11.44-0.84,17.07c-3.2,1.48-3.7,6.55,1.24,8.99c2.11-4,5.48-6,9.96-6.23
		c0.01-0.01,0.02-0.02,0.03-0.03C434.43,138.11,435.48,136.82,436.52,135.52z"/>
	<path class="st29" d="M437.76,120.21c-0.09-0.05-0.19-0.11-0.28-0.17c0.07,0.01,0.15,0.02,0.23,0.03
		C437.72,120.12,437.74,120.17,437.76,120.21z"/>
	<path class="st30" d="M300.12,205.17c-0.8,0.25-1.94,0.31-3.52,0.11c1.03-0.38,1.86-0.87,2.48-1.48c1.06-1.04,1.51-2.42,1.22-4.22
		c-0.03-0.2-0.07-0.41-0.12-0.63c0.09,0.17,0.18,0.35,0.27,0.52C301.85,202.23,302.36,204.47,300.12,205.17z"/>
	<path class="st28" d="M328.53,122.69c-0.09,0.71-0.17,1.43-0.24,2.15c-0.77,8.26-0.14,16.77-4.67,24.35
		c-1.98,1.34-3.96,2.68-5.94,4.01c-0.1,0.07-0.19,0.13-0.29,0.2c-0.07,0.91-0.23,1.81-0.48,2.68c-3.3-0.03-6.6-0.05-9.89-0.08
		c-10.46,3.17-6.28,13.24-9.38,19.88l0,0c1.16,6.72,2.32,13.43,3.48,20.15c-0.39,0.95-0.7,1.93-0.93,2.93
		c0.05,0.22,0.09,0.42,0.12,0.63c0.29,1.8-0.16,3.18-1.22,4.22c-0.62,0.61-1.45,1.1-2.48,1.48c-2.62-4.86-5.25-9.73-7.87-14.59
		c-0.42-0.78-0.84-1.56-1.26-2.34c-1.34-11.74-5.18-23.34-2.05-35.34c0.89-9.53,2.32-18.89,7.86-27.07
		c0.47-5.65,4.57-9.07,7.94-12.94c4.29-7.96,10.34-14.03,18.79-17.54c-0.2,1.3,0.06,2.41,0.57,3.43c1.69,3.42,6.16,5.72,4.96,10.31
		c0,0,0,0,0,0.01c-0.04,0.12-0.07,0.23-0.11,0.35c-0.68,2.2-1.38,4.4-2.07,6.6c-0.06,0.26-0.11,0.51-0.15,0.75
		c0.06-0.01,0.13-0.02,0.2-0.03c0.11-0.08,0.21-0.17,0.32-0.25C325.33,118.64,326.93,120.67,328.53,122.69z"/>
	<path class="st31" d="M323.73,116.63c-0.11,0.09-0.21,0.17-0.32,0.25c-0.07,0.01-0.14,0.02-0.2,0.03c0.03-0.24,0.08-0.5,0.15-0.75
		c0.69-2.2,1.39-4.4,2.07-6.6c0.04-0.12,0.08-0.23,0.11-0.35c0.07,0.19,0.14,0.39,0.2,0.58
		C326.61,112.49,325.95,114.77,323.73,116.63z"/>
	<path class="st32" d="M399.72,237.12c-0.71,0.34-1.42,0.67-2.13,0.99c-26.65,11.97-52.32,7.62-76.77-6.8
		c-10.31-6.09-19.2-14.51-24.22-26.01c1.03-0.38,1.86-0.87,2.48-1.48c1.06-1.04,1.51-2.42,1.22-4.22c-0.03-0.2-0.07-0.41-0.12-0.63
		c0.23-1,0.54-1.98,0.93-2.93c0.69-0.04,1.33-0.01,1.94,0.08c5.28,0.74,7.59,5.85,10.99,9.06c21.99,20.83,48.06,27.05,77.11,23.27
		c0.2-0.02,0.4-0.05,0.61-0.08c0.15,0.35,0.3,0.69,0.45,1.04c0,0,0,0-0.01,0c1.16,1.13,2.32,2.25,3.48,3.37
		c0.39,0.38,0.78,0.75,1.16,1.13v0C397.8,234.97,398.76,236.04,399.72,237.12z"/>
	<path class="st33" d="M426.55,204.77c-5.97,8.43-12.76,14.78-22.66,17.68c0.03-0.93,0.06-1.86,0.09-2.79
		c0.11-3.5,0.21-6.99,0.32-10.48c0,0,0,0-0.01,0c-0.12,0.02-1.35,0.15-1.35,0.15v-0.2c0.14-0.13,0.28-0.26,0.42-0.39
		c17.12-16.12,26.52-35.56,24.56-59.84c-0.12-1.54,0.06-2.91,0.51-4.12c0.83-2.24,2.56-3.97,4.93-5.32
		c0.01-0.01,0.02-0.02,0.03-0.03c1.05-1.3,2.1-2.6,3.14-3.9c0,0,0,0,0.01-0.01C442.72,159.95,441.84,183.18,426.55,204.77z"/>
	<path class="st34" d="M392.2,229.39C392.19,229.39,392.19,229.4,392.2,229.39c-0.39-0.31-0.74-0.63-1.06-0.96
		c-1.46-1.52-2.18-3.26-1.71-5.37c0-0.01,0-0.02,0-0.03c0.01,0.01,0.01,0.03,0.02,0.04h0v0c0.76,1.76,1.53,3.52,2.29,5.27
		C391.9,228.7,392.05,229.04,392.2,229.39z"/>
	<path class="st34" d="M404.28,209.17c-0.12,0.02-1.35,0.15-1.35,0.15v-0.2c0-0.2,0-0.39,0-0.59c0.14,0.06,0.28,0.13,0.41,0.2
		C403.66,208.88,403.97,209.03,404.28,209.17z"/>
	<path class="st35" d="M415.02,120.14c-0.63,6.77-3.49,11.43-10.94,11.74c-0.06,0-0.13,0.01-0.2,0.01
		c-0.59-0.07-1.19-0.16-1.77-0.27c-1.62-0.31-3.19-0.83-4.41-1.9c-18.85-16.44-38.71-20.34-60.46-5.46
		c-2.17,1.48-4.94,1.6-7.64,0.95c-0.44-0.1-0.87-0.23-1.31-0.37c0.07-0.72,0.15-1.44,0.24-2.15c-1.6-2.02-3.2-4.04-4.8-6.06
		c-0.11,0.09-0.21,0.17-0.32,0.25c-0.07,0.01-0.14,0.02-0.2,0.03c0.03-0.24,0.08-0.5,0.15-0.75c0.69-2.2,1.39-4.4,2.07-6.6
		c0.04-0.12,0.08-0.23,0.11-0.35v-0.01c16.26-7.93,33.28-11.9,51.46-9.88c0.78-0.44,1.55-0.79,2.32-1.07
		c0.94-0.34,1.87-0.57,2.8-0.7c0,0,0,0,0,0c1.61-0.24,3.22-0.21,4.82-0.01c2.87,0.35,5.73,1.24,8.6,2.03
		c0.06,0.01,0.12,0.03,0.18,0.05c0.33,0.09,0.66,0.18,0.99,0.27c0.11,0.06,0.22,0.13,0.33,0.2c-0.43-0.16-0.86-0.3-1.3-0.45
		c0.7,0.79,1.18,1.79,1.24,3.22v0c5.46,5.64,10.91,11.27,16.37,16.91c0.52-0.01,1.04-0.01,1.56-0.02
		C414.95,119.87,414.99,120,415.02,120.14z"/>
	<path class="st36" d="M395.73,99.63c0.7,0.79,1.18,1.79,1.24,3.22v0c-6.23-1.11-12.46-2.21-18.7-3.31
		c-0.42-0.07-0.85-0.15-1.27-0.23c-0.02-3.57-0.85-7.44,3.48-9.39l0,0c-0.1,2.29,0.52,3.46,1.5,4.05c2.31,1.4,6.62-0.37,8.25,2.1
		c1.7,1.31,4.06,1.97,5.48,3.55c0.33,0.09,0.66,0.18,0.99,0.27c0.11,0.06,0.22,0.13,0.33,0.2C396.6,99.92,396.17,99.78,395.73,99.63
		z"/>
	<path class="st36" d="M397.12,100.11c0,0,0,0.01,0,0.02c-0.03-0.02-0.06-0.04-0.09-0.06C397.07,100.09,397.09,100.1,397.12,100.11z
		"/>
	<path class="st37" d="M392.2,229.39C392.19,229.39,392.19,229.4,392.2,229.39c-17.48,8.31-34.83,4.72-51.34-2.08
		c-15.34-6.32-28.68-16.03-38.61-29.67c-0.39-0.53-0.77-1.07-1.15-1.61c-1.16-6.72-2.32-13.43-3.48-20.15l0,0
		c1.73-0.7,3.24-1.02,4.56-1.03c6.21-0.11,8.38,6.35,10.99,11.07c13.84,25.03,34.94,34.29,62.46,30.4c0.56,0.89,1.12,1.78,1.68,2.67
		c4.04,1.36,8.08,2.73,12.12,4.08c0-0.01,0-0.02,0-0.03c0.01,0.01,0.01,0.03,0.02,0.04h0v0c0.76,1.76,1.53,3.52,2.29,5.27
		C391.9,228.7,392.05,229.04,392.2,229.39z"/>
	<path class="st38" d="M377.31,218.98c-23.81,8.1-53.01-4-65.54-26.75c-2.9-5.26-3.91-12.4-9.83-15.22
		c-1.21-0.57-2.63-0.97-4.32-1.13l0,0c3.1-6.64-1.08-16.71,9.38-19.88c1.84,0.99,3.29,2.24,4.45,3.72c1.47,1.87,2.46,4.09,3.19,6.57
		c8.06,27.75,26.32,41.64,55.15,41.08c0.45,0.58,0.89,1.17,1.34,1.75c1.5,2.4,3.01,4.79,4.51,7.19
		C376.2,217.2,376.76,218.09,377.31,218.98z"/>
	<path class="st39" d="M371.13,209.12c-26.88,8.01-52.08-11.71-60.42-40.73c-0.72-2.51-1.47-5.01-2.22-7.51
		c-0.49-1.63-0.98-3.26-1.47-4.89c3.3,0.03,6.6,0.05,9.89,0.08c0.2,0.05,0.39,0.1,0.57,0.16c4.51,1.36,6.03,5.38,7.39,9.26
		c5.88,16.8,17.75,26.59,34.94,30.33c0.14,0.05,0.28,0.09,0.41,0.14c0.02,1.05,0.05,2.1,0.07,3.15c2.01,1.25,4.02,2.49,6.04,3.73
		c1.15,1.51,2.3,3.02,3.46,4.53C370.24,207.96,370.68,208.54,371.13,209.12z"/>
	<path class="st28" d="M323.73,116.63c-0.11,0.09-0.21,0.17-0.32,0.25c-0.07,0.01-0.14,0.02-0.2,0.03c0.03-0.24,0.08-0.5,0.15-0.75
		C323.48,116.31,323.61,116.47,323.73,116.63z"/>
	<path class="st28" d="M327,149.02c-0.53,0.63-1.08,1.2-1.66,1.73c-0.4,0.36-0.81,0.7-1.24,1c-1.79,1.27-3.84,1.97-6.33,1.69
		c-0.12-0.02-0.24-0.03-0.37-0.05c0.1-0.06,0.19-0.13,0.29-0.2c1.98-1.33,3.96-2.67,5.94-4.01c4.52-7.57,3.89-16.09,4.67-24.35
		c0.07-0.72,0.15-1.44,0.24-2.15c0.4,0.84,0.75,1.68,1.07,2.52C332.65,133.37,331.77,141.3,327,149.02z"/>
	<path class="st40" d="M360.3,199.11c-26.62-1.85-35.62-21.44-43.19-42.47c-0.07-0.19-0.13-0.38-0.2-0.57
		c0.25-0.88,0.41-1.77,0.48-2.68c0.1-0.06,0.19-0.13,0.29-0.2c1.98-1.33,3.96-2.67,5.94-4.01c0.62,0.49,1.19,1.02,1.71,1.57
		c3.71,3.95,5.02,9.32,7.1,14.1c4.7,10.77,11.97,18.14,23.1,21.23c0.61,0.99,1.22,1.98,1.83,2.97c0.92,1.15,1.85,2.31,2.77,3.47
		c0.03,1.14,0.05,2.29,0.08,3.43C360.25,197.01,360.28,198.06,360.3,199.11z"/>
	<path class="st41" d="M433.35,139.45c-0.06,0.58-0.11,1.17-0.16,1.76c-0.97,11.01-1.34,22.11-3.3,32.94
		c-2.8,15.51-10.26,28.33-25.61,35.03c0,0,0,0-0.01,0c-0.12,0.02-1.35,0.15-1.35,0.15v-0.2c0-0.2,0-0.39,0-0.59
		c0.03-4.22,0.06-8.44,0.09-12.67c9.38-10.2,16.54-21.22,13.47-36.06c-1.65-1.2-2.36-2.67-2.67-4.25c1.29-3.88,3.75-6.88,7.5-8.9
		c0.65-0.35,1.33-0.67,2.06-0.96C425.5,141.68,428.87,139.68,433.35,139.45z"/>
	<path class="st42" d="M423.39,145.68c-0.14,0.4-0.3,0.79-0.48,1.16c-2.06,4.35-6.51,7.55-6.41,12.95c-1.65-1.2-2.36-2.67-2.67-4.25
		c-0.58-2.98,0.29-6.37-1.03-9.15h0c-0.74,0.44-1.52,0.72-2.33,0.88c0.04-0.31,0.06-0.61,0.08-0.9c0.2-3.45-1.19-6.1-4.83-8.22
		c-2.52-1.47-4.76-3.68-3.61-6.54c0.29-0.71,0.78-1.45,1.53-2.24c6.38-0.04,7.24-5.64,9.7-9.62c0.52-0.01,1.04-0.01,1.56-0.02
		c2.08-0.03,4.15-0.06,6.23-0.09c0.62-0.01,1.24-0.02,1.86-0.03c6.13,5.96,11.41,11.44-0.84,17.07
		C418.95,138.17,418.46,143.24,423.39,145.68z"/>
	<path class="st43" d="M397.03,100.08c-0.43-0.16-0.86-0.3-1.3-0.45c0,0-0.01-0.01-0.02-0.01c0.33,0.09,0.66,0.18,0.99,0.27
		C396.81,99.95,396.92,100.02,397.03,100.08z"/>
	<path class="st43" d="M397.12,100.11c0,0,0,0.01,0,0.02c-0.03-0.02-0.06-0.04-0.09-0.06C397.07,100.09,397.09,100.1,397.12,100.11z
		"/>
	<path class="st44" d="M389.45,223.07c-0.01,0-0.01,0-0.02-0.01c0-0.01,0-0.02,0-0.03C389.44,223.04,389.45,223.06,389.45,223.07z"
		/>
	<path class="st45" d="M412.8,146.4L412.8,146.4c-0.75,0.44-1.53,0.72-2.34,0.88c-0.17,0.03-0.34,0.06-0.52,0.08
		c-0.15,0.02-0.3,0.03-0.45,0.05c0.18-0.35,0.37-0.71,0.55-1.07c-4.34-5.94-10.85-1.68-16.08-3.42c-0.68,0.61-1.35,1.23-2.01,1.85
		c-0.44-0.21-0.85-0.45-1.25-0.7c-4.1-2.55-6.64-6.85-10.29-9.92c-11.21-9.4-24.09-9.19-34.1,0.55c-9.87,9.62-10.08,20.1-0.02,32.06
		c1.94,2.3,3.92,4.53,5.69,6.91c0.61,0.81,1.18,1.64,1.72,2.49c-0.55,1.85-0.65,3.94-0.46,6.21c0.76,1.24,1.53,2.47,2.29,3.71
		c0.61,0.99,1.22,1.98,1.83,2.97c-19.38-2.8-28.6-13.02-33.28-37.31c-0.16-0.84-0.32-1.7-0.47-2.57c4.52-7.57,3.89-16.09,4.67-24.35
		c0.07-0.72,0.15-1.44,0.24-2.15c1.64-0.12,3.75,0.37,4.85-0.47c25.72-19.61,48.7-13.31,70.27,7.16c0.03,0.97,0.18,1.8,0.44,2.5
		c1,2.71,3.58,3.6,6.85,4.39C418.24,138.04,417.63,142,412.8,146.4z"/>
	<path class="st46" d="M412.8,146.4c-0.74,0.44-1.52,0.72-2.33,0.88c-0.17,0.03-0.34,0.06-0.52,0.08c-0.15,0.02-0.3,0.03-0.45,0.05
		c0.18-0.35,0.37-0.71,0.55-1.07c0.17,0.01,0.33,0.03,0.5,0.04C411.29,146.42,412.05,146.43,412.8,146.4z"/>
	<path class="st28" d="M404.28,209.17C404.28,209.17,404.28,209.18,404.28,209.17c-0.1,3.5-0.2,6.99-0.31,10.49
		c-0.03,0.93-0.06,1.86-0.09,2.79c-1.06,4.61-3.12,8.6-7.05,11.45c-0.39-0.38-0.78-0.75-1.16-1.13c-1.16-1.12-2.32-2.25-3.48-3.37
		c0,0,0,0,0.01,0c-0.15-0.35-0.3-0.69-0.45-1.04c-0.76-1.76-1.53-3.52-2.29-5.27v0h0c0-0.01-0.01-0.03-0.02-0.04
		c0,0.01,0,0.02,0,0.03c-4.04-1.36-8.08-2.72-12.12-4.08c-0.56-0.89-1.12-1.78-1.68-2.67c-1.5-2.4-3-4.79-4.51-7.19
		c-0.45-0.58-0.89-1.17-1.34-1.75c-1.15-1.51-2.31-3.02-3.46-4.53c-2.01-1.24-4.02-2.48-6.04-3.73c-0.02-1.05-0.05-2.1-0.07-3.15
		c-0.03-1.14-0.05-2.29-0.08-3.43c-0.92-1.15-1.85-2.31-2.77-3.47c-0.61-0.99-1.22-1.98-1.83-2.97c-0.76-1.24-1.53-2.47-2.29-3.71
		c-0.2-2.27-0.09-4.36,0.46-6.21c0.88-2.98,2.9-5.35,6.62-6.83c12.92-5.15,21.85-15.4,31.62-24.56c0.67-0.62,1.34-1.24,2.01-1.85
		c5.23,1.74,11.74-2.52,16.08,3.42c-0.18,0.35-0.37,0.71-0.55,1.07c0.15-0.01,0.3-0.03,0.45-0.05c0.17-0.02,0.34-0.05,0.52-0.08
		c0.81-0.16,1.59-0.45,2.33-0.88h0c1.33,2.78,0.46,6.16,1.03,9.15c0.3,1.58,1.01,3.05,2.67,4.25c3.07,14.84-4.1,25.86-13.47,36.06
		c-0.03,4.22-0.06,8.44-0.09,12.67c0,0.2,0,0.39,0,0.59v0.2C402.93,209.32,404.16,209.19,404.28,209.17z"/>
	<path class="st47" d="M393.97,142.93c-0.68,0.61-1.35,1.23-2.01,1.85c-9.78,9.16-18.71,19.41-31.62,24.56
		c-3.73,1.48-5.75,3.85-6.62,6.83c-0.55,1.85-0.65,3.94-0.46,6.21c-1.28-2.96-1.83-6.04-1.26-8.7c0.5-2.36,1.88-4.38,4.43-5.68
		c12.55-6.4,21.15-18.56,34.28-23.92C391.76,143.65,392.85,143.26,393.97,142.93z"/>
	<path class="st47" d="M410.05,146.34c-0.03,0.34-0.06,0.68-0.1,1.02c-0.15,0.02-0.3,0.03-0.45,0.05
		C409.68,147.05,409.86,146.7,410.05,146.34z"/>
	<path class="st48" d="M393.97,142.93c-0.68,0.61-1.35,1.23-2.01,1.85c-9.78,9.16-18.71,19.41-31.62,24.56
		c-3.73,1.48-5.75,3.85-6.62,6.83c-0.55,1.85-0.65,3.94-0.46,6.21c-3.62-3.87-5.56-8.72-9.84-12.52
		c-12.21-10.83-12.49-24.58-2.31-36.21c11.05-12.61,27.15-14.92,39.53-4.99C385.66,132.69,389.55,138.13,393.97,142.93z"/>
</g>
</svg>
